<svg role="img" viewBox="0 0 128 36" fill="none" xmlns="http://www.w3.org/2000/svg" aria-hidden="true">
  <title>Crease</title>
  <path fill-rule="evenodd" clip-rule="evenodd"
    d="M20.4867 7.55457C16.5542 7.55457 13.3662 10.763 13.3662 14.7208L20.4867 14.7208L20.4867 7.55457Z"
    fill="#121212" shape-rendering="geometricPrecision" />
  <path fill-rule="evenodd" clip-rule="evenodd"
    d="M20.4866 22.3494C16.4272 22.3494 13.1364 19.0374 13.1364 14.952L20.4866 14.952L20.4866 22.3494ZM20.4866 28.1286V14.952L7.39404 14.952C7.39404 22.2292 13.2558 28.1286 20.4866 28.1286Z"
    fill="#121212" shape-rendering="geometricPrecision" />
  <path
    d="M28.0767 17.494C28.0767 15.6087 28.4593 13.9007 29.2247 12.37C30.0087 10.8393 31.1287 9.63533 32.5847 8.758C34.0593 7.862 35.8047 7.414 37.8207 7.414C39.7433 7.414 41.3673 7.806 42.6927 8.59C44.0367 9.35533 45.0447 10.326 45.7167 11.502C46.4073 12.6593 46.7993 13.8353 46.8927 15.03H43.1127C43.0193 14.3393 42.7673 13.6673 42.3567 13.014C41.946 12.3607 41.358 11.8287 40.5927 11.418C39.846 10.9887 38.9407 10.774 37.8767 10.774C36.6447 10.774 35.5713 11.0727 34.6567 11.67C33.7607 12.2673 33.07 13.0793 32.5847 14.106C32.118 15.114 31.8847 16.2433 31.8847 17.494C31.8847 18.7447 32.118 19.8833 32.5847 20.91C33.07 21.918 33.7607 22.7207 34.6567 23.318C35.5713 23.9153 36.6447 24.214 37.8767 24.214C38.9407 24.214 39.846 24.0087 40.5927 23.598C41.358 23.1687 41.946 22.6273 42.3567 21.974C42.7673 21.3207 43.0193 20.6487 43.1127 19.958H46.8927C46.7993 21.1527 46.4073 22.338 45.7167 23.514C45.0447 24.6713 44.0367 25.642 42.6927 26.426C41.3673 27.1913 39.7433 27.574 37.8207 27.574C35.8047 27.574 34.0593 27.1353 32.5847 26.258C31.1287 25.362 30.0087 24.1487 29.2247 22.618C28.4593 21.0873 28.0767 19.3793 28.0767 17.494Z"
    fill="#121212" shape-rendering="geometricPrecision" />
  <path
    d="M52.597 15.73C52.6717 15.73 52.737 15.702 52.793 15.646C52.849 15.5713 52.8863 15.506 52.905 15.45C53.241 14.6847 53.5863 14.0873 53.941 13.658C54.2957 13.2287 54.809 12.902 55.481 12.678C56.153 12.454 57.0677 12.342 58.225 12.342V15.982C58.001 15.9633 57.693 15.954 57.301 15.954C55.6397 15.954 54.4823 16.346 53.829 17.13C53.1757 17.8953 52.849 19.1647 52.849 20.938V27.35H49.265V12.566H52.849V13.378C52.849 13.9567 52.709 14.526 52.429 15.086C52.3543 15.2353 52.317 15.3567 52.317 15.45C52.317 15.5993 52.401 15.6927 52.569 15.73H52.597Z"
    fill="#121212" shape-rendering="geometricPrecision" />
  <path
    d="M73.1536 19.762C73.1536 20.0607 73.1256 20.4247 73.0696 20.854H62.3176C62.4483 21.974 62.8589 22.8513 63.5496 23.486C64.2403 24.1207 65.1456 24.438 66.2656 24.438C67.7776 24.438 68.7763 23.6913 69.2616 22.198H72.9016C72.5656 23.822 71.8376 25.1287 70.7176 26.118C69.6163 27.0887 68.1229 27.574 66.2376 27.574C64.6883 27.574 63.3536 27.2473 62.2336 26.594C61.1136 25.9407 60.2643 25.0447 59.6856 23.906C59.1069 22.7487 58.8176 21.4327 58.8176 19.958C58.8176 18.4273 59.1163 17.0927 59.7136 15.954C60.3109 14.7967 61.1603 13.91 62.2616 13.294C63.3816 12.6593 64.6883 12.342 66.1816 12.342C67.3949 12.342 68.5243 12.6033 69.5696 13.126C70.6336 13.63 71.4923 14.442 72.1456 15.562C72.8176 16.6633 73.1536 18.0633 73.1536 19.762ZM69.5696 18.39C69.4949 17.4567 69.1776 16.7007 68.6176 16.122C68.0576 15.5433 67.2829 15.254 66.2936 15.254C64.1656 15.254 62.8869 16.2993 62.4576 18.39H69.5696Z"
    fill="#121212" shape-rendering="geometricPrecision" />
  <path
    d="M74.6256 23.29C74.6256 21.7593 75.1109 20.63 76.0816 19.902C77.0709 19.1553 78.3776 18.7353 80.0016 18.642L81.4296 18.586C82.6989 18.5487 83.6042 18.4647 84.1456 18.334C84.6869 18.2033 84.9482 17.886 84.9296 17.382C84.9109 16.7473 84.6962 16.234 84.2856 15.842C83.8749 15.45 83.1002 15.254 81.9616 15.254C80.8042 15.254 79.9829 15.4593 79.4976 15.87C79.0122 16.262 78.7136 16.8033 78.6016 17.494H75.0736C75.3162 15.7393 76.0909 14.442 77.3976 13.602C78.7042 12.762 80.2629 12.342 82.0736 12.342C84.0522 12.342 85.6202 12.8273 86.7776 13.798C87.9349 14.7687 88.5136 16.5607 88.5136 19.174V27.35H84.9296V26.314C84.9296 25.754 85.0696 25.2127 85.3496 24.69C85.4242 24.5033 85.4616 24.3633 85.4616 24.27C85.4616 24.158 85.4149 24.0833 85.3216 24.046L85.2096 24.018C85.0976 24.018 85.0136 24.074 84.9576 24.186C84.9016 24.2793 84.8736 24.3353 84.8736 24.354C83.9962 26.5007 82.2976 27.574 79.7776 27.574C78.8629 27.574 78.0042 27.3873 77.2016 27.014C76.4176 26.6407 75.7922 26.1273 75.3256 25.474C74.8589 24.8207 74.6256 24.0927 74.6256 23.29ZM84.9296 19.734C84.5562 20.1447 84.0616 20.434 83.4456 20.602C82.8482 20.7513 81.9056 20.8913 80.6176 21.022C79.8149 21.1153 79.2082 21.33 78.7976 21.666C78.4056 21.9833 78.2096 22.4593 78.2096 23.094C78.2096 23.6353 78.4149 24.074 78.8256 24.41C79.2549 24.746 79.8056 24.914 80.4776 24.914C80.7202 24.914 80.9069 24.9047 81.0376 24.886C82.1389 24.7367 83.0536 24.2607 83.7816 23.458C84.5282 22.6553 84.9109 21.414 84.9296 19.734Z"
    fill="#121212" shape-rendering="geometricPrecision" />
  <path
    d="M93.9889 22.366C94.0076 23.038 94.2595 23.6073 94.7449 24.074C95.2489 24.5407 96.0889 24.774 97.2649 24.774C98.3475 24.774 99.1222 24.6153 99.5889 24.298C100.074 23.9807 100.317 23.5513 100.317 23.01C100.317 22.6553 100.158 22.3847 99.8409 22.198C99.5422 22.0113 99.1222 21.8713 98.5809 21.778C98.0395 21.666 97.1902 21.5447 96.0329 21.414C94.0169 21.1713 92.6542 20.63 91.9449 19.79C91.2542 18.9313 90.9089 17.9513 90.9089 16.85C90.9089 16.0287 91.1515 15.282 91.6369 14.61C92.1222 13.9193 92.8409 13.3687 93.7929 12.958C94.7449 12.5473 95.8929 12.342 97.2369 12.342C99.1222 12.342 100.606 12.79 101.689 13.686C102.772 14.5633 103.36 15.702 103.453 17.102H99.9249C99.8689 16.542 99.6262 16.0753 99.1969 15.702C98.7862 15.3287 98.1049 15.142 97.1529 15.142C95.3795 15.142 94.4929 15.646 94.4929 16.654C94.4929 16.934 94.5582 17.1673 94.6889 17.354C94.8382 17.5407 95.1462 17.7087 95.6129 17.858C96.0795 18.0073 96.7702 18.1287 97.6849 18.222C99.6449 18.4273 101.166 18.8847 102.249 19.594C103.35 20.2847 103.901 21.33 103.901 22.73C103.901 24.2793 103.313 25.474 102.137 26.314C100.98 27.154 99.3182 27.574 97.1529 27.574C95.0622 27.574 93.4382 27.1167 92.2809 26.202C91.1422 25.2687 90.5355 23.99 90.4609 22.366H93.9889Z"
    fill="#121212" shape-rendering="geometricPrecision" />
  <path
    d="M119.73 19.762C119.73 20.0607 119.702 20.4247 119.646 20.854H108.894C109.025 21.974 109.435 22.8513 110.126 23.486C110.817 24.1207 111.722 24.438 112.842 24.438C114.354 24.438 115.353 23.6913 115.838 22.198H119.478C119.142 23.822 118.414 25.1287 117.294 26.118C116.193 27.0887 114.699 27.574 112.814 27.574C111.265 27.574 109.93 27.2473 108.81 26.594C107.69 25.9407 106.841 25.0447 106.262 23.906C105.683 22.7487 105.394 21.4327 105.394 19.958C105.394 18.4273 105.693 17.0927 106.29 15.954C106.887 14.7967 107.737 13.91 108.838 13.294C109.958 12.6593 111.265 12.342 112.758 12.342C113.971 12.342 115.101 12.6033 116.146 13.126C117.21 13.63 118.069 14.442 118.722 15.562C119.394 16.6633 119.73 18.0633 119.73 19.762ZM116.146 18.39C116.071 17.4567 115.754 16.7007 115.194 16.122C114.634 15.5433 113.859 15.254 112.87 15.254C110.742 15.254 109.463 16.2993 109.034 18.39H116.146Z"
    fill="#121212" shape-rendering="geometricPrecision" />
</svg>
